<?xml version="1.0" encoding="UTF-8" standalone="no"?>
<svg
   xmlns:dc="http://purl.org/dc/elements/1.1/"
   xmlns:cc="http://creativecommons.org/ns#"
   xmlns:rdf="http://www.w3.org/1999/02/22-rdf-syntax-ns#"
   xmlns:svg="http://www.w3.org/2000/svg"
   xmlns="http://www.w3.org/2000/svg"
   xmlns:sodipodi="http://sodipodi.sourceforge.net/DTD/sodipodi-0.dtd"
   xmlns:inkscape="http://www.inkscape.org/namespaces/inkscape"
   width="114"
   height="128"
   viewBox="0 0 114 128"
   version="1.1"
   id="SVGRoot"
   sodipodi:docname="icon.svg"
   inkscape:version="1.0.2 (1.0.2+r75+1)">
  <defs
     id="defs18">
    <clipPath
       clipPathUnits="userSpaceOnUse"
       id="clipPath35">
      <path
         id="path37"
         style="fill:#ff0000;fill-opacity:1;fill-rule:nonzero;stroke:none"
         d="M 51.119696,9.889643 V 136.70214 H 173.20368 c -5e-5,-1.08534 -2.3e-4,-2.17047 0,-3.25586 9e-5,-1.26657 -9.5e-4,-2.53421 -0.002,-3.80078 0.002,-1.08701 0.018,-2.17306 -0.006,-3.25977 -0.0133,-1.24523 0.0122,-2.49066 0.0762,-3.73437 -0.0365,-1.32851 0.046,1.12251 -0.18359,-1.73242 -0.0593,-0.7374 -0.0894,-1.47734 -0.11133,-2.2168 -8e-4,-0.0249 0.0462,0.0835 0.0469,0.0586 0.0313,-1.1889 -0.10728,-1.48284 -0.33594,-2.86328 -0.59064,-3.77334 -1.19729,-7.5869 -1.07813,-11.41796 0.17156,-0.71802 0.10983,-0.22006 -0.0683,-1.3086 -0.30939,-1.88933 -0.57417,-3.806649 -0.60157,-5.722653 -0.0104,-1.66566 0.0286,1.04806 -0.13281,-1.634766 -0.0311,-0.516955 -0.0375,-1.034875 -0.0488,-1.552734 -0.004,-0.02632 -0.0114,-0.03866 -0.0137,-0.05859 -0.002,-0.01425 0.001,-0.02527 0,-0.04297 -0.0148,-0.06765 -0.0288,-0.135354 -0.043,-0.203125 -0.28052,-1.618728 -0.48028,-3.192223 -0.59375,-4.835937 -0.0297,-0.430362 0.15528,-0.865115 -0.0293,-1.292969 -0.0374,-0.507421 -0.0978,-1.01307 -0.14648,-1.519531 -0.0496,-0.782815 -0.11334,-1.566014 -0.14844,-2.34961 -0.0821,-1.832981 0.0607,-3.675823 0,-5.509765 0,-2.147263 7e-5,-4.294146 0,-6.441406 -4e-5,-2.038718 -1.2e-4,-4.076518 0,-6.115235 0,-1.85168 -0.003,-3.704964 0.002,-5.556641 0.004,-2.13476 -0.0135,-4.269544 -0.0137,-6.404296 0.008,-0.564147 0.0113,-1.127334 0.0234,-1.691407 0.0159,-0.738923 0.11828,-1.560544 0.0586,-2.294921 -0.0358,-0.4407 -0.10801,-0.877576 -0.16211,-1.316407 -0.0426,-0.709848 -0.10381,-1.420177 -0.12891,-2.130859 -0.0711,-2.014396 0.14838,-0.637689 -0.0508,-3.138672 -0.056,-0.702843 -0.19171,-1.397644 -0.25781,-2.099609 -0.30636,-3.255191 -0.252,-2.689043 -0.25,-5.417969 0.0459,-1.090347 0.066,-2.182463 0.13671,-3.271484 0.31017,-4.778584 0.048,3.351825 0.35157,-3.828126 0.0315,-0.744641 0.0113,-1.49102 0.0117,-2.236328 0.002,-3.4763 0.004,-2.739864 -0.0547,-5.761718 -0.0675,-3.420759 -0.1916,-6.840439 -0.0547,-10.261719 0.008,-0.197796 0.0343,-0.394419 0.0488,-0.591797 z M 170.7447,94.159174 c 0.004,0.01947 0.007,0.03913 0.0117,0.05859 -0.005,-0.221477 -0.013,-0.442729 -0.0215,-0.664063 -0.008,-0.201992 -0.009,0.356086 0.01,0.605469 z m 0.0117,0.05859 c 3.2e-4,0.01434 0.002,0.02863 0.002,0.04297 0.0404,0.245827 0.15407,0.733341 0.1211,0.548828 -0.0355,-0.198441 -0.0798,-0.394867 -0.12305,-0.591797 z M 213.54353,9.889643 c 0.66955,1.79296 1.34407,3.500653 1.67187,4.236328 0.67745,1.52037 1.57972,2.931868 2.28516,4.439453 1.10526,2.362018 2.09682,4.775961 3.14453,7.164063 0.49476,1.577341 0.90107,2.836563 1.25195,3.957031 0.94779,0.03152 1.89392,0.06589 2.8418,0.08984 10.823,0.303188 7.04389,0.118642 21.36133,1.05664 1.7831,0.116818 3.5669,0.229408 5.34961,0.353516 4.90317,-1.022237 9.93981,-1.302459 14.93945,-1.128906 1.14394,0.03971 2.28801,0.12493 3.42578,0.25 0.65803,0.07233 1.73281,-0.281767 1.95508,0.341797 0.30046,0.842891 0.5501,1.701082 0.7793,2.564453 0.79018,-0.146476 1.14901,-0.22579 2.92773,-0.712891 0.62725,-0.171772 1.23323,-0.449594 1.87891,-0.527344 2.23881,-0.2696 4.49306,-0.415815 6.74609,-0.509765 1.49215,-0.06222 3.00135,-0.165339 4.48047,0.04102 1.14039,0.159093 2.25694,0.43777 3.37109,0.736328 0.50291,-0.05966 1.00569,-0.110877 1.51172,-0.128906 5.78096,-0.20595 8.04506,0.111459 13.4336,0.337891 2.1615,0.09083 4.32388,0.158206 6.48632,0.222656 1.18874,0.03543 1.42462,0.0487 1.87891,0.06836 1.0013,-0.149999 1.8444,-0.235573 1.90625,-0.0625 0.009,0.02455 0.0148,0.04964 0.0234,0.07422 0.16888,-0.0078 0.20365,5.86e-4 0.50586,-0.01563 -0.0425,0.456233 -0.0702,0.914163 -0.10742,1.371094 0.15174,0.6161 0.25875,1.241222 0.34375,1.871094 3.71603,-0.507919 11.83255,-1.604899 13.09179,-1.716797 4.60116,-0.408864 9.2128,-0.673838 13.82422,-0.943359 3.30107,-0.192937 6.60413,-0.37668 9.91016,-0.44336 3.9107,-0.07889 7.82483,0.0034 11.73633,0.0059 1.33688,0.04677 2.67285,0.09465 4.00976,0.140624 5.14247,-0.263457 10.28473,-0.48268 15.43164,-0.636718 1.6577,-0.07726 3.31481,-0.1525 4.97266,-0.22461 2.93044,-0.127462 5.86221,-0.228943 8.79492,-0.283203 1.27855,-0.02365 3.47014,-1.176507 3.83594,0.04883 0.84212,2.820924 0.8551,5.783566 0.77148,8.761719 2.85162,-0.05154 5.70269,-0.07673 8.55469,-0.06836 3.59507,0.01056 4.74466,-0.01497 5.75,0.05859 V 9.889643 Z m 199.94726,99.593747 c 0.23844,2.59756 0.17772,5.17451 -0.75781,7.53516 -0.15221,0.38407 -4.75444,0.48826 -6.64648,0.53906 -0.55594,-0.0277 -1.1115,-0.0705 -1.66797,-0.084 -2.3891,-0.0579 -1.38812,0.009 -3.26563,0.0234 -2.51302,0.0199 -5.02598,0.0297 -7.53906,0.041 -2.23592,0.01 -4.47388,-0.0385 -6.70898,0.0234 -4.10269,0.11365 -8.2019,0.3343 -12.30274,0.50196 -12.057,0.65028 -8.98011,0.59586 -23.46484,0.74609 -3.19102,0.0328 -6.38342,0.0445 -9.57422,-0.006 -4.99251,-0.0787 -9.98378,-0.22952 -14.97461,-0.38086 -3.38566,-0.10266 -6.78032,-0.0817 -10.1543,-0.38086 -1.23203,-0.10923 -2.46153,-0.24497 -3.68945,-0.39257 -0.47988,0.0351 -0.54075,0.0452 -1.48633,0.11328 0.009,-0.0542 0.0204,-0.10797 0.0293,-0.16211 -1.57827,0.29421 -3.23517,0.46023 -4.66602,0.78515 -0.15297,0.0347 -2.86618,-1.29716 -3.64453,-2.0332 -0.16746,-0.0215 -0.33444,-0.0473 -0.50195,-0.0684 -9.69982,-1.7678 -8.95187,-1.34102 -18.69727,-4.56055 -5.89621,-0.46995 -6.06805,-0.35011 -13.51367,-0.15039 l -6.14648,0.31641 c -0.71906,0.17309 -1.43746,0.3494 -2.15625,0.52344 1.5822,0.94121 2.67328,2.36727 2.41406,4.5625 -0.31703,2.6848 -2.53489,4.5272 -4.79492,6.35156 1.20976,0.10329 2.41884,0.20728 3.6289,0.30664 6.25015,0.55878 12.50498,1.08256 18.75196,1.67578 2.61492,0.24832 4.74396,0.47245 6.80664,0.68945 0.66325,-0.12671 1.32842,-0.24085 2,-0.3125 6.88191,-0.734 13.69534,-0.8189 20.59179,-0.70507 8.52968,0.1408 17.03727,0.55379 25.55274,1.02343 -0.75835,2.70506 5.7752,-1.39422 6.0957,0.62305 0.4379,2.75624 0.55943,5.55657 0.51172,8.35938 1.69148,0.51916 3.38599,1.02999 5.07813,1.54687 0.47561,0.0463 1.07499,0.11762 1.56445,0.16797 h 68.45703 v -26.7168 c -0.97806,-0.003 -1.95597,-0.006 -2.92578,-0.12109 -0.74051,-0.0881 -1.47286,-0.22727 -2.20313,-0.38086 z m -7.33398,7.52539 c 10e-4,0.0194 0.005,0.0391 0.006,0.0586 0.0106,0.1689 0.65859,0.14932 0.49805,0.0957 -0.20384,-0.068 -0.33504,-0.10177 -0.50391,-0.1543 z m -228.58789,16.39453 c -0.24783,0.15303 -0.68731,0.43297 -1.07617,0.68164 -0.51193,0.52821 -1.47208,2.25566 -0.97657,1.78516 0.77595,-0.73678 1.40647,-1.60906 2.05274,-2.4668 z" />
    </clipPath>
  </defs>
  <sodipodi:namedview
     id="base"
     pagecolor="#ffffff"
     bordercolor="#666666"
     borderopacity="1.0"
     inkscape:pageopacity="0.0"
     inkscape:pageshadow="2"
     inkscape:zoom="3.959798"
     inkscape:cx="41.498245"
     inkscape:cy="70.419863"
     inkscape:document-units="px"
     inkscape:current-layer="layer1"
     inkscape:document-rotation="0"
     showgrid="false"
     inkscape:window-width="1894"
     inkscape:window-height="1255"
     inkscape:window-x="693"
     inkscape:window-y="639"
     inkscape:window-maximized="0" />
  <metadata
     id="metadata21">
    <rdf:RDF>
      <cc:Work
         rdf:about="">
        <dc:format>image/svg+xml</dc:format>
        <dc:type
           rdf:resource="http://purl.org/dc/dcmitype/StillImage" />
        <dc:title></dc:title>
      </cc:Work>
    </rdf:RDF>
  </metadata>
  <g
     inkscape:label="Layer 1"
     inkscape:groupmode="layer"
     id="layer1">
    <path
       style="fill:#e34b0f;stroke-width:1.00021"
       d="M 51.319931,21.119221 C 45.642295,17.97235 44.460516,9.500058 48.991808,4.428663 c 2.136963,-2.391678 3.867323,-3.236966 7.453823,-3.641217 4.20058,-0.4734656 4.97253,-0.2247342 7.66797,2.470702 5.2643,5.2643 5.30947,11.199629 0.1247,16.384403 -3.21876,3.218758 -8.65427,3.840079 -12.91837,1.47667 z"
       id="path78" />
    <path
       style="fill:#e34b0f;stroke-width:1.00021"
       d="m 97.534331,47.056552 c -5.71454,-2.485427 -7.93863,-9.983623 -4.62511,-15.592963 2.76314,-4.677622 10.276189,-6.642946 15.239749,-3.986534 4.60498,2.464517 6.59431,11.426288 3.51294,15.825566 -1.79677,2.565237 -6.51115,5.235958 -9.14157,5.178747 -0.99002,-0.02153 -3.233729,-0.6627 -4.986009,-1.424816 z"
       id="path76" />
    <path
       style="fill:#e34b0f;stroke-width:1.00021"
       d="M 6.2003255,46.31682 C -1.9975275,40.775018 -0.30955851,29.131402 9.0670115,26.542405 16.739995,24.423793 24.697261,32.463176 22.254211,39.865691 19.745536,47.467053 12.317389,50.451996 6.2003255,46.31682 Z"
       id="path74" />
    <path
       style="fill:#e34b0f;stroke-width:1.00021"
       d="m 94.619011,98.130997 c -2.42788,-2.42787 -3.40072,-4.30193 -3.40072,-6.55104 0,-6.793127 5.25976,-12.052887 12.052879,-12.052887 2.24911,0 4.12318,0.972848 6.55105,3.400719 2.78789,2.787891 3.40072,4.157742 3.40072,7.601606 0,3.443872 -0.61283,4.813722 -3.40072,7.601602 -2.78789,2.787893 -4.15774,3.400723 -7.60161,3.400723 -3.443859,0 -4.813709,-0.61283 -7.601599,-3.400723 z"
       id="path70" />
    <path
       style="fill:#e34b0f;stroke-width:1.00021"
       d="m 5.5115465,99.579587 c -6.586845,-4.01628 -6.24004301,-13.646335 0.661279,-18.362514 8.4784145,-5.793924 19.7134605,3.956974 15.6805305,13.609134 -2.759898,6.605363 -9.898891,8.681903 -16.3418095,4.75338 z"
       id="path67" />
    <path
       style="fill:#e34b0f;stroke-width:1.00021"
       d="m 52.535591,126.07778 c -3.947433,-1.71705 -6.162054,-4.98985 -6.458158,-9.54397 -0.423335,-6.5109 4.273578,-11.00124 11.507358,-11.00124 10.45713,0 14.23885,14.61128 5.20718,20.11878 -3.62619,2.21126 -5.93266,2.30715 -10.25638,0.42643 z"
       id="path71" />
    <path
       style="fill:#3c3a39;stroke-width:1.00021"
       d="m 77.510881,27.848084 -13.14357,-7.481399 1.97334,-3.344545 1.97333,-3.344547 12.20232,6.993444 c 6.71126,3.846394 12.5698,7.350058 13.01897,7.785919 0.44916,0.435861 -0.0153,2.160487 -1.03208,3.832501 l -1.84875,3.040025 z"
       id="path63" />
    <path
       style="fill:#3c3a39;stroke-width:1.00021"
       d="m 21.151679,32.082718 -1.552132,-3.27475 8.497302,-4.896842 c 4.673516,-2.693264 10.591662,-6.10434 13.151434,-7.58017 l 4.654134,-2.683329 1.601135,3.357616 1.601136,3.357616 -10.199804,5.766827 C 33.294992,29.30144 27.354795,32.675227 25.704446,33.62699 l -3.000634,1.730478 z"
       id="path61" />
    <path
       style="fill:#3c3a39;stroke-width:1.00021"
       d="M 8.2007475,63.773742 V 48.020413 h 3.5007395 3.50074 V 63.773742 79.52707 h -3.50074 -3.5007395 z"
       id="path59" />
    <path
       style="fill:#3c3a39;stroke-width:1.00021"
       d="M 98.219771,64.001493 V 47.922945 l 3.997669,0.04873 3.99768,0.04873 0.003,15.648271 0.003,15.648271 -4.00085,0.381542 -4.000839,0.381542 V 64.001486 Z"
       id="path57" />
    <path
       style="fill:#3c3a39;stroke-width:1.00021"
       d="m 67.213221,112.36275 c 0,-0.64432 -0.70034,-1.94537 -1.55631,-2.89121 -1.44492,-1.59661 -0.61243,-2.26722 11.63067,-9.36916 7.25285,-4.207213 13.26551,-7.519643 13.36147,-7.360953 0.0959,0.15867 0.93844,1.51042 1.87217,3.00389 0.93374,1.49347 1.6977,2.89436 1.6977,3.11312 0,0.66796 -24.72442,14.675823 -25.90341,14.675823 -0.60626,0 -1.10229,-0.52718 -1.10229,-1.17151 z"
       id="path43" />
    <path
       style="fill:#3c3a39;stroke-width:1.00021"
       d="m 32.156353,106.25261 -12.552107,-7.221423 1.549783,-3.00063 c 0.852381,-1.65035 1.6061,-3.13196 1.674931,-3.29248 0.06883,-0.16052 2.769403,1.23729 6.001268,3.10624 3.231866,1.86896 9.115097,5.269193 13.073846,7.556083 l 7.197727,4.15798 -1.696565,2.98162 c -0.93311,1.63988 -1.921611,2.9709 -2.196669,2.95782 -0.275058,-0.0131 -6.148554,-3.27343 -13.052214,-7.24521 z"
       id="path69" />
  </g>
</svg>
