<?xml version="1.0" encoding="UTF-8" standalone="no"?>
<svg
   xmlns:dc="http://purl.org/dc/elements/1.1/"
   xmlns:cc="http://creativecommons.org/ns#"
   xmlns:rdf="http://www.w3.org/1999/02/22-rdf-syntax-ns#"
   xmlns:svg="http://www.w3.org/2000/svg"
   xmlns="http://www.w3.org/2000/svg"
   xmlns:sodipodi="http://sodipodi.sourceforge.net/DTD/sodipodi-0.dtd"
   xmlns:inkscape="http://www.inkscape.org/namespaces/inkscape"
   width="369"
   height="128"
   viewBox="0 0 369 128"
   version="1.1"
   id="SVGRoot"
   sodipodi:docname="logo.svg"
   inkscape:version="1.0.2 (1.0.2+r75+1)">
  <defs
     id="defs18" />
  <sodipodi:namedview
     id="base"
     pagecolor="#ffffff"
     bordercolor="#666666"
     borderopacity="1.0"
     inkscape:pageopacity="0.0"
     inkscape:pageshadow="2"
     inkscape:zoom="3.959798"
     inkscape:cx="91.747853"
     inkscape:cy="79.542772"
     inkscape:document-units="px"
     inkscape:current-layer="layer1"
     inkscape:document-rotation="0"
     showgrid="false"
     inkscape:window-width="2912"
     inkscape:window-height="1255"
     inkscape:window-x="730"
     inkscape:window-y="605"
     inkscape:window-maximized="0" />
  <metadata
     id="metadata21">
    <rdf:RDF>
      <cc:Work
         rdf:about="">
        <dc:format>image/svg+xml</dc:format>
        <dc:type
           rdf:resource="http://purl.org/dc/dcmitype/StillImage" />
        <dc:title></dc:title>
      </cc:Work>
    </rdf:RDF>
  </metadata>
  <g
     inkscape:label="Layer 1"
     inkscape:groupmode="layer"
     id="layer1">
    <g
       id="g67"
       transform="translate(-50.369696,-9.295893)">
      <path
         style="fill:#e34b0f;stroke-width:1.00021"
         d="m 102.87834,135.37367 c -3.947433,-1.71705 -6.162054,-4.98985 -6.458158,-9.54397 -0.423335,-6.5109 4.273578,-11.00124 11.507358,-11.00124 10.45713,0 14.23885,14.61128 5.20718,20.11878 -3.62619,2.21126 -5.93266,2.30715 -10.25638,0.42643 z M 55.854295,108.87548 c -6.586845,-4.01628 -6.240043,-13.646335 0.661279,-18.362514 8.478415,-5.793924 19.713461,3.956974 15.680531,13.609134 -2.759898,6.60536 -9.898891,8.6819 -16.34181,4.75338 z m 89.107465,-1.44859 c -2.42788,-2.42787 -3.40072,-4.30193 -3.40072,-6.55104 0,-6.793127 5.25976,-12.052887 12.05288,-12.052887 2.24911,0 4.12318,0.972848 6.55105,3.400719 2.78789,2.787891 3.40072,4.157742 3.40072,7.601606 0,3.443872 -0.61283,4.813722 -3.40072,7.601602 -2.78789,2.78789 -4.15774,3.40072 -7.60161,3.40072 -3.44386,0 -4.81371,-0.61283 -7.6016,-3.40072 z M 282.59084,71.81937 V 41.81303 h 4.96931 4.96932 l 0.28179,11.752483 0.2818,11.752484 8.99515,-11.752484 8.99515,-11.752483 h 5.88043 c 4.55375,0 5.66208,0.282073 4.91255,1.250264 -6.62773,8.561303 -19.45163,26.044513 -19.80979,27.00728 -0.25549,0.68678 5.16005,7.950879 12.03453,16.142442 6.87448,8.191563 12.49906,15.055514 12.49906,15.253224 0,0.19771 -2.45896,0.35947 -5.46437,0.35947 h -5.46435 l -11.28919,-13.032068 -11.28917,-13.032069 -0.27909,13.032069 -0.27908,13.032068 h -4.97203 -4.97202 z M 56.543074,55.612713 C 48.345221,50.070911 50.03319,38.427295 59.40976,35.838298 c 7.672984,-2.118612 15.63025,5.920771 13.1872,13.323286 -2.508675,7.601362 -9.936822,10.586305 -16.053886,6.451129 z m 91.334006,0.739732 c -5.71454,-2.485427 -7.93863,-9.983623 -4.62511,-15.592963 2.76314,-4.677622 10.27619,-6.642946 15.23975,-3.986534 4.60498,2.464517 6.59431,11.426288 3.51294,15.825566 -1.79677,2.565237 -6.51115,5.235958 -9.14157,5.178747 -0.99002,-0.02153 -3.23373,-0.6627 -4.98601,-1.424816 z m -46.2144,-25.937331 c -5.677636,-3.146871 -6.859415,-11.619163 -2.328123,-16.690558 2.136963,-2.391678 3.867323,-3.236966 7.453823,-3.641217 4.20058,-0.4734656 4.97253,-0.2247342 7.66797,2.470702 5.2643,5.2643 5.30947,11.199629 0.1247,16.384403 -3.21876,3.218758 -8.65427,3.840079 -12.91837,1.47667 z"
         id="path71" />
      <path
         style="fill:#3c3a39;stroke-width:1.00021"
         d="m 82.499102,115.5485 -12.552107,-7.22142 1.549783,-3.00063 c 0.852381,-1.65035 1.6061,-3.13196 1.674931,-3.29248 0.06883,-0.16052 2.769403,1.23729 6.001268,3.10624 3.231866,1.86896 9.115097,5.26919 13.073846,7.55608 l 7.197727,4.15798 -1.696565,2.98162 c -0.93311,1.63988 -1.921611,2.9709 -2.196669,2.95782 -0.275058,-0.0131 -6.148554,-3.27343 -13.052214,-7.24521 z m 35.056868,6.11014 c 0,-0.64432 -0.70034,-1.94537 -1.55631,-2.89121 -1.44492,-1.59661 -0.61243,-2.26722 11.63067,-9.36916 7.25285,-4.20721 13.26551,-7.51964 13.36147,-7.36095 0.0959,0.15867 0.93844,1.51042 1.87217,3.00389 0.93374,1.49347 1.6977,2.89436 1.6977,3.11312 0,0.66796 -24.72442,14.67582 -25.90341,14.67582 -0.60626,0 -1.10229,-0.52718 -1.10229,-1.17151 z M 97.875982,104.38676 c -8.811065,-2.75506 -16.754313,-9.849306 -20.649027,-18.442 -3.174173,-7.003003 -2.9668,-18.830131 0.458119,-26.127926 3.188617,-6.794282 8.37887,-12.184626 15.178245,-15.763387 4.595266,-2.418656 6.274991,-2.73091 14.690531,-2.73091 8.36206,0 10.1096,0.320088 14.56654,2.668075 6.27692,3.306787 11.90974,9.426991 15.11012,16.417562 3.73344,8.154898 3.48077,18.633589 -0.65171,27.027856 -7.16566,14.55551 -23.49318,21.7065 -38.702818,16.95073 z m 19.237288,-8.02174 c 5.66433,-2.366707 11.1913,-8.251476 13.49742,-14.371223 5.17557,-13.734277 -2.39062,-28.604383 -16.66602,-32.754352 -9.80981,-2.851791 -18.679581,-0.278075 -25.656666,7.444723 -3.472987,3.844183 -6.739647,11.907301 -6.739647,16.63552 0,9.573039 8.42704,20.998596 17.643795,23.921822 5.349438,1.696652 12.612948,1.341406 17.921118,-0.87649 z m 83.16285,4.0793 c -25.61515,-9.550132 -27.71158,-43.382624 -3.45502,-55.757403 5.28031,-2.69381 14.77737,-3.44836 20.756,-1.649084 l 4.50095,1.354565 0.30233,5.21169 c 0.16627,2.866429 -0.10215,5.21169 -0.59649,5.21169 -0.49435,0 -2.43077,-0.768301 -4.30317,-1.707334 -8.60353,-4.314792 -20.41101,-0.409965 -25.61581,8.471352 -7.2254,12.329211 0.23408,27.981244 14.59525,30.624858 4.68577,0.86256 10.90395,-0.971114 15.41783,-4.546556 l 3.80079,-3.010598 -0.30005,6.33863 c -0.29664,6.26676 -0.344,6.360092 -4.17681,8.231562 -5.04446,2.463088 -15.90229,3.099538 -20.9258,1.226628 z M 235.5809,71.81937 V 41.81303 h 18.00381 18.0038 v 4.000845 4.000846 h -13.00274 -13.00275 v 8.501796 8.501797 h 10.50222 10.50222 v 4.000845 4.000846 h -10.50222 -10.50222 v 9.502007 9.502008 h 13.00275 13.00274 v 4.000846 4.000844 h -18.0038 -18.00381 z m 95.02008,0 V 41.81303 h 18.00381 18.0038 v 3.971814 3.971814 l -13.2528,0.279084 -13.2528,0.279084 v 8.001691 8.001691 l 10.75227,0.283892 10.75227,0.283891 v 3.967007 3.967007 h -11.03986 -11.03985 l 0.28758,9.251955 0.28759,9.251955 13.2528,0.279084 13.2528,0.279083 v 3.971815 3.971813 h -18.0038 -18.00381 z m 47.00994,0 V 41.81303 h 4.50095 4.50095 v 13.034489 13.03449 l 11.75248,-0.281795 11.75248,-0.281795 0.27994,-12.752694 0.27993,-12.752695 h 3.97097 3.97096 v 30.00634 30.00634 h -4.00084 -4.00085 V 88.822963 75.820216 h -12.00254 -12.00253 v 13.002747 13.002747 h -4.50095 -4.50095 z m -229.0484,1.478016 V 57.218838 l 3.99767,0.04873 3.99768,0.04873 0.003,15.648271 0.003,15.648271 -4.00085,0.381542 -4.00084,0.381542 V 73.297379 Z M 58.543496,73.069635 V 57.316306 h 3.50074 3.50074 v 15.753329 15.753328 h -3.50074 -3.50074 z m 12.950932,-31.691024 -1.552132,-3.27475 8.497302,-4.896842 c 4.673516,-2.693264 10.591662,-6.10434 13.151434,-7.58017 l 4.654134,-2.683329 1.601135,3.357616 1.601136,3.357616 -10.199804,5.766827 c -5.609892,3.171754 -11.550089,6.545541 -13.200438,7.497304 l -3.000634,1.730478 z m 56.359202,-4.234634 -13.14357,-7.481399 1.97334,-3.344545 1.97333,-3.344547 12.20232,6.993444 c 6.71126,3.846394 12.5698,7.350058 13.01897,7.785919 0.44916,0.435861 -0.0153,2.160487 -1.03208,3.832501 l -1.84875,3.040025 z"
         id="path69" />
    </g>
  </g>
</svg>
